<?xml version="1.0" encoding="UTF-8"?>
<svg version="1.1" xmlns="http://www.w3.org/2000/svg" width="2000" height="2000">
<path d="M0 0 C0.99 0.99 1.98 1.98 3 3 C3.33 -1.62 3.66 -6.24 4 -11 C9.28 -11 14.56 -11 20 -11 C20.09292632 1.32680255 20.16387974 13.65352093 20.20724869 25.98060322 C20.22806994 31.70537556 20.25628764 37.42990718 20.30175781 43.15454102 C20.34541049 48.68534377 20.36917814 54.21591585 20.37950897 59.74687767 C20.38686556 61.85067561 20.40123083 63.95446179 20.42292023 66.05816078 C20.58196835 82.1325954 19.52720643 94.02620577 8 106.09375 C-3.71768846 117.30925181 -21.08963601 121.5459587 -37 122 C-38.16426514 122.03867188 -38.16426514 122.03867188 -39.35205078 122.078125 C-60.74613023 122.70840537 -79.82007184 120.11995211 -98 108 C-97.39665691 104.29496359 -95.77525763 102.14031852 -93.4375 99.25 C-92.79683594 98.45078125 -92.15617188 97.6515625 -91.49609375 96.828125 C-91.00238281 96.22484375 -90.50867188 95.6215625 -90 95 C-86.41489461 95.69828656 -83.54787458 97.20967275 -80.3125 98.875 C-60.79088016 107.8983265 -35.52077938 107.63167909 -15.265625 101.12109375 C-7.81383501 98.13287595 -2.05602357 93.55860764 1.2890625 86.16796875 C2.48846815 82.51044053 2.82270389 78.82959604 3 75 C2.48953125 75.44730469 1.9790625 75.89460938 1.453125 76.35546875 C-12.12092636 87.64311075 -28.55438017 90.5766962 -45.8125 90.4375 C-47.78935791 90.42614014 -47.78935791 90.42614014 -49.80615234 90.41455078 C-67.72018997 90.11159767 -83.59295491 86.01768905 -96.875 73.2890625 C-108.24024824 61.04635025 -108.71688419 45.5205045 -108.17919922 29.65478516 C-107.42785539 18.52384132 -102.39177651 8.94673323 -94.375 1.3125 C-69.95111102 -18.55778256 -25.17259408 -18.44242135 0 0 Z M-84.9375 14.6875 C-92.25677101 24.02647551 -91.91012635 35.66134252 -91 47 C-89.71417445 55.50787903 -85.6042124 62.30744819 -78.9375 67.75 C-64.91159193 77.03784964 -44.23895204 76.72552457 -28.3125 73.75 C-22.47868759 72.49863843 -17.20629381 70.92854027 -12 68 C-10.96875 67.4225 -9.9375 66.845 -8.875 66.25 C-2.27198572 61.08242361 2.61414705 55.44110431 4 47 C4.8247116 35.53384846 4.30053135 25.25276258 -3 16 C-14.42547823 4.57452177 -30.12444904 2.73514663 -45.5625 2.625 C-59.60461746 2.72531712 -74.63218396 4.03867342 -84.9375 14.6875 Z " fill="#1D4AA0" transform="translate(693,997)"/>
<path d="M0 0 C5.82659544 5.81521537 8.70860612 11.88266706 10 20 C10 21.65 10 23.3 10 25 C4.39 25 -1.22 25 -7 25 C-7.53625 23.453125 -8.0725 21.90625 -8.625 20.3125 C-11.01693475 14.44439711 -13.74699266 11.48100175 -19.4453125 8.88671875 C-43.17419816 -0.40878489 -78.48293006 -0.44940047 -102.73046875 7.9453125 C-106.31782957 9.60503864 -109.49009232 11.27556106 -111 15 C-111.18146936 18.16693302 -111.09444031 21.01133609 -110 24 C-98.21606363 35.80567795 -73.10641305 35.6623723 -57.54882812 37.42724609 C-7.55674768 43.10543639 -7.55674768 43.10543639 3 54 C6.30924378 58.65713419 8.6469327 63.23323406 9 69 C9.05027344 69.75023437 9.10054687 70.50046875 9.15234375 71.2734375 C9.49461551 80.17250327 7.35683171 87.26627584 1.71484375 94.21875 C-9.34711055 105.70907155 -29.10930827 107.75280818 -44.28222656 108.12768555 C-48.49157249 108.20539046 -52.7003973 108.23090042 -56.91040039 108.24023438 C-59.53239297 108.24988914 -62.15358271 108.28096834 -64.77539062 108.3125 C-84.20858382 108.43382583 -106.23225546 106.50285357 -120.8828125 92.15625 C-127.08901972 84.54662909 -129 76.68089744 -129 67 C-123.39 67 -117.78 67 -112 67 C-111.79375 68.340625 -111.5875 69.68125 -111.375 71.0625 C-110.0334887 76.98750823 -107.22221391 80.71729265 -102.28515625 84.21484375 C-81.15602799 96.05251603 -45.16700933 93.50346584 -22.5625 87.1875 C-17.31365876 85.3698079 -12.59604447 83.19208895 -10 78 C-9.19313754 71.40958332 -9.19313754 71.40958332 -11.8125 65.625 C-19.57813226 61.66605022 -27.60503261 59.38181258 -36.1875 58.0625 C-37.17435791 57.90265625 -38.16121582 57.7428125 -39.17797852 57.578125 C-46.05576972 56.50351819 -52.94964208 55.61676346 -59.859375 54.77734375 C-60.72697952 54.67148453 -61.59458405 54.56562531 -62.48847961 54.45655823 C-66.82353717 53.93002847 -71.15954057 53.41691626 -75.4987793 52.92602539 C-114.62872739 48.3786157 -114.62872739 48.3786157 -125 36 C-129.90253784 28.38306268 -129.82917783 19.78129291 -129 11 C-127.42909141 4.23040111 -123.27461255 -0.36533978 -117.5625 -4.0625 C-89.0168194 -20.19701512 -25.89286625 -22.20110993 0 0 Z " fill="#4ECCCE" transform="translate(1711,979)"/>
<path d="M0 0 C5.93841224 4.91831688 10.11073764 9.83965415 13 17 C13 17.66 13 18.32 13 19 C13.66 19 14.32 19 15 19 C15.26941406 18.41734375 15.53882813 17.8346875 15.81640625 17.234375 C21.86849561 5.80930861 34.24723583 -1.62379444 46 -6 C46.84175781 -6.3196875 47.68351563 -6.639375 48.55078125 -6.96875 C55.4769619 -9.13380792 62.36481627 -9.30767277 69.5625 -9.375 C70.51995117 -9.38893799 71.47740234 -9.40287598 72.46386719 -9.41723633 C86.37337308 -9.32556978 98.88387306 -4.6826394 109.02734375 4.90625 C118.76772771 15.24455852 119.45073814 27.66512959 119.29296875 41.29296875 C119.28735918 42.73455865 119.28309553 44.17615436 119.28010559 45.61775208 C119.26876366 49.37428147 119.23939136 53.13045143 119.20599365 56.88684082 C119.17506009 60.73505799 119.161551 64.58333441 119.14648438 68.43164062 C119.11450875 75.95460832 119.06183117 83.47720759 119 91 C113.39 91 107.78 91 102 91 C101.97812622 88.36004028 101.97812622 88.36004028 101.95581055 85.66674805 C101.90388489 79.81128917 101.83852743 73.95606024 101.76428509 68.1008482 C101.71981101 64.55545572 101.68050665 61.0101721 101.65356445 57.46459961 C101.62225714 53.37585549 101.56748026 49.28770308 101.51171875 45.19921875 C101.50213387 43.31573982 101.50213387 43.31573982 101.49235535 41.39421082 C101.31143684 30.42243051 100.18222401 20.96562632 92.3125 12.87890625 C83.54024226 5.75144684 71.83666974 5.2802212 61 6 C52.18397757 7.3457835 44.78888039 10.78884329 37 15 C35.66933861 15.671984 34.33709609 16.34091254 33 17 C33 17.66 33 18.32 33 19 C32.26007813 19.57492187 31.52015625 20.14984375 30.7578125 20.7421875 C27.66616198 23.27331214 25.96253874 25.72763303 23.875 29.125 C23.21242188 30.17945313 22.54984375 31.23390625 21.8671875 32.3203125 C17.61496051 40.09336478 16.54814163 48.08277321 16.48828125 56.8203125 C16.46135445 58.29732132 16.46135445 58.29732132 16.43388367 59.8041687 C16.38023654 62.91107049 16.34603243 66.01782277 16.3125 69.125 C16.27928661 71.24741644 16.24479331 73.36981326 16.20898438 75.4921875 C16.12453677 80.6613496 16.05750982 85.83047088 16 91 C10.39 91 4.78 91 -1 91 C-1.029729 88.59509277 -1.029729 88.59509277 -1.06005859 86.14160156 C-1.13659045 80.14779945 -1.22523198 74.15422517 -1.31738281 68.16064453 C-1.35547705 65.57507857 -1.39036264 62.98946314 -1.421875 60.40380859 C-1.46795278 56.67006848 -1.5258743 52.93666328 -1.5859375 49.203125 C-1.59748871 48.06200256 -1.60903992 46.92088013 -1.62094116 45.74517822 C-1.75522474 28.68315742 -1.75522474 28.68315742 -9.7578125 14.28515625 C-19.2717325 6.6553655 -30.08394506 5.21719347 -42 6 C-56.48087809 8.20767909 -68.91440958 15.06481209 -78.03515625 26.56640625 C-87.46233318 40.31687452 -87.63609299 54.25293659 -87.75 70.3125 C-87.77821342 72.32489486 -87.80814816 74.33726635 -87.83984375 76.34960938 C-87.91306515 81.23303028 -87.96302789 86.11617565 -88 91 C-93.61 91 -99.22 91 -105 91 C-105 58.33 -105 25.66 -105 -8 C-99.39 -8 -93.78 -8 -88 -8 C-87.67 -0.41 -87.34 7.18 -87 15 C-84.6796875 12.525 -84.6796875 12.525 -82.3125 10 C-61.7148274 -11.0124955 -24.95247977 -17.18284535 0 0 Z " fill="#0F2492" transform="translate(389,994)"/>
<path d="M0 0 C13.9425 -0.061875 27.885 -0.12375 42.25 -0.1875 C46.60993164 -0.21481201 50.96986328 -0.24212402 55.46191406 -0.27026367 C60.89404297 -0.28381348 60.89404297 -0.28381348 63.45794678 -0.28633118 C65.20292474 -0.29085967 66.94789492 -0.30124192 68.69281006 -0.31672668 C91.47374208 -0.50831966 116.27858842 0.89517158 134 17 C144.82469693 28.25586935 146.36414229 43.43310001 146.31567383 58.33984375 C146.31251539 60.36513269 146.33605107 62.38895303 146.36132812 64.4140625 C146.36718923 76.37071325 144.76499976 86.94969864 138 97 C137.59265625 97.61488281 137.1853125 98.22976563 136.765625 98.86328125 C127.24543229 111.49153687 109.85085498 115.09278368 95.11138916 117.37368774 C86.2964869 118.57343101 77.43147571 118.36853633 68.5546875 118.29296875 C66.78589158 118.28854142 65.01709168 118.28549108 63.24829102 118.28381348 C56.79046623 118.26827573 50.33272635 118.22639367 43.875 118.1875 C29.39625 118.125625 14.9175 118.06375 0 118 C0 79.06 0 40.12 0 0 Z M17 16 C17 44.38 17 72.76 17 102 C27.291875 102.061875 37.58375 102.12375 48.1875 102.1875 C51.38977295 102.21481201 54.5920459 102.24212402 57.89135742 102.27026367 C90.28374566 103.31469091 90.28374566 103.31469091 119.5625 91.5625 C129.2734791 81.35352197 129.54820777 69.13149182 129.22265625 55.73046875 C128.8309794 45.75353429 127.2844849 37.11757919 120.75 29.3125 C100.574554 12.34678405 70.92880643 15.72617345 46.3125 15.875 C31.8028125 15.936875 31.8028125 15.936875 17 16 Z " fill="#3282B4" transform="translate(1031,967)"/>
<path d="M0 0 C9.97900708 9.73096293 14.93290158 21.99419992 15.17578125 35.78125 C15.19852852 37.74344935 15.22099702 39.70567225 15.23266602 41.66796875 C15.24971145 43.65388244 15.2935716 45.63950773 15.33789062 47.625 C15.43344856 62.32622061 11.60352823 74.47288381 1.82421875 85.58984375 C-15.14766486 102.27648562 -39.13184468 105.41612338 -61.875 105.4375 C-62.61382416 105.43850708 -63.35264832 105.43951416 -64.11386108 105.44055176 C-87.38978797 105.41906697 -110.24920304 102.23372009 -127.83984375 85.53515625 C-139.09311729 73.64900968 -141.25610722 59.96060861 -141.375 44.1875 C-141.40400391 42.93582031 -141.43300781 41.68414063 -141.46289062 40.39453125 C-141.55668111 26.47025187 -137.97703764 13.98851682 -128.625 3.4375 C-127.779375 2.695 -126.93375 1.9525 -126.0625 1.1875 C-125.60875 0.73117187 -125.155 0.27484375 -124.6875 -0.1953125 C-96.0816995 -27.51385198 -29.16028376 -24.11045533 0 0 Z M-114.87890625 14.03515625 C-122.02397119 23.042594 -124.24119316 32.18235803 -124.25 43.4375 C-124.26224609 44.24574219 -124.27449219 45.05398438 -124.28710938 45.88671875 C-124.31253757 56.48179939 -122.09749209 65.53352723 -114.93359375 73.578125 C-100.25630473 87.80779204 -78.90925292 89.63070206 -59.3828125 89.33984375 C-41.44087898 88.84259823 -22.84277175 86.46004194 -9.6875 73.0625 C-0.80438993 62.16540547 -0.79218172 48.62078148 -2.0625 35.1875 C-3.2514596 27.59401134 -5.96469373 20.95607025 -11.0625 15.1875 C-11.7225 15.1875 -12.3825 15.1875 -13.0625 15.1875 C-13.0625 14.5275 -13.0625 13.8675 -13.0625 13.1875 C-24.65547037 1.24428883 -44.1728752 -0.81523887 -59.953125 -1.16577148 C-78.19872593 -1.29327294 -101.24658409 0.16829952 -114.87890625 14.03515625 Z " fill="#3B9BBD" transform="translate(1349.0625,981.8125)"/>
<path d="M0 0 C7.34279586 6.76451707 10.31210796 14.53405864 10.79103088 24.41744995 C10.81434731 26.18283615 10.81434731 26.18283615 10.83813477 27.98388672 C10.84803436 28.63825211 10.85793396 29.29261749 10.86813354 29.96681213 C10.89948223 32.10934957 10.92439942 34.2519091 10.94921875 36.39453125 C10.96981135 37.88811793 10.9908084 39.38169909 11.01219177 40.87527466 C11.0671745 44.79113263 11.1166879 48.70704112 11.16503906 52.62298584 C11.21542876 56.6250046 11.2710233 60.62695074 11.32617188 64.62890625 C11.43346201 72.46999213 11.53448921 80.3111403 11.6328125 88.15234375 C6.0228125 88.15234375 0.4128125 88.15234375 -5.3671875 88.15234375 C-6.0271875 83.86234375 -6.6871875 79.57234375 -7.3671875 75.15234375 C-8.4396875 76.03921875 -9.5121875 76.92609375 -10.6171875 77.83984375 C-25.14648892 88.66659912 -43.92267103 90.34224701 -61.44628906 90.39257812 C-63.46722541 90.4022246 -65.48711608 90.43330117 -67.5078125 90.46484375 C-81.13133279 90.51816477 -93.19336119 88.65395761 -104.6171875 80.96484375 C-110.26896422 75.18461756 -111.62414245 69.74343175 -111.8671875 61.71484375 C-111.6161978 54.11670092 -110.71277572 47.96116726 -105.58984375 42.12890625 C-92.56752834 30.63434851 -70.22896339 30.78007624 -53.765625 29.40625 C-53.00922226 29.34304062 -52.25281952 29.27983124 -51.47349548 29.21470642 C-47.71359098 28.90387017 -43.95325143 28.6064402 -40.19067383 28.32983398 C-32.73544776 27.76230025 -25.35957696 26.96617389 -17.98046875 25.74609375 C-17.26118698 25.63406616 -16.54190521 25.52203857 -15.80082703 25.40661621 C-12.13303463 24.75894441 -9.62966273 24.24592132 -7.3671875 21.15234375 C-9.24803408 15.82327844 -11.24314063 11.95168126 -16.3671875 9.15234375 C-35.9411798 1.67039303 -62.48408989 0.53367679 -81.9921875 8.96484375 C-85.61538888 11.01307751 -87.51870034 13.38142994 -89.3671875 17.15234375 C-89.6971875 19.46234375 -90.0271875 21.77234375 -90.3671875 24.15234375 C-95.9771875 24.15234375 -101.5871875 24.15234375 -107.3671875 24.15234375 C-108.08704717 15.22608379 -105.26658461 9.8772872 -100.6796875 2.40234375 C-78.63917678 -19.0424775 -23.78202562 -18.56253815 0 0 Z M-15.05078125 40.52734375 C-26.74077255 42.81972655 -38.60069045 43.48396514 -50.46118164 44.38183594 C-72.49989277 45.11231007 -72.49989277 45.11231007 -92.3671875 53.15234375 C-95.20254534 57.40538051 -95.12808509 61.15992383 -94.3671875 66.15234375 C-92.68568081 69.56399576 -90.33140474 71.61948685 -86.9921875 73.46484375 C-65.68580044 79.04508798 -37.62858733 76.69842093 -18.3046875 66.01171875 C-16.46574269 64.91862302 -16.46574269 64.91862302 -14.3671875 63.15234375 C-14.3671875 62.49234375 -14.3671875 61.83234375 -14.3671875 61.15234375 C-13.7071875 61.15234375 -13.0471875 61.15234375 -12.3671875 61.15234375 C-7.87438776 53.66434419 -6.01640497 47.92190692 -6.3671875 39.15234375 C-9.34987338 39.15234375 -12.13088309 39.9208846 -15.05078125 40.52734375 Z " fill="#2A6DAD" transform="translate(976.3671875,996.84765625)"/>
<path d="M0 0 C8.25922858 7.9884342 12.05471973 16.32053813 13.66796875 27.61328125 C7.39796875 27.61328125 1.12796875 27.61328125 -5.33203125 27.61328125 C-5.84765625 26.10765625 -6.36328125 24.60203125 -6.89453125 23.05078125 C-10.50225139 14.20000762 -16.35286703 9.97720747 -24.87109375 5.96484375 C-47.967014 -3.05455626 -77.85220973 -4.16153475 -101.08203125 5.05078125 C-111.64731997 9.96284121 -118.5123803 16.20300325 -122.60546875 27.21875 C-126.25888249 39.25930175 -125.80420509 54.85866217 -120.04296875 66.13671875 C-112.88179936 77.66352081 -102.67455315 82.18689655 -89.76953125 85.36328125 C-67.53661963 90.03140148 -38.23145163 90.08043734 -18.55078125 77.30078125 C-11.4533709 71.90275084 -8.22540848 65.94620766 -5.33203125 57.61328125 C0.60796875 57.61328125 6.54796875 57.61328125 12.66796875 57.61328125 C12.5151703 67.85077731 8.26552958 75.21694 2.66796875 83.61328125 C2.00796875 83.61328125 1.34796875 83.61328125 0.66796875 83.61328125 C0.66796875 84.27328125 0.66796875 84.93328125 0.66796875 85.61328125 C-17.77912958 101.50023096 -40.21603025 104.84177525 -63.76953125 104.86328125 C-64.53114563 104.86428833 -65.29276001 104.86529541 -66.07745361 104.86633301 C-77.09652537 104.85645799 -87.63662859 104.52452987 -98.33203125 101.61328125 C-99.41484375 101.32324219 -100.49765625 101.03320312 -101.61328125 100.734375 C-115.60908599 96.51089352 -128.24938339 88.70985103 -136.0859375 76.078125 C-144.11562711 60.19494586 -145.2699115 38.62844923 -140.70703125 21.55078125 C-135.76142168 7.6961816 -126.64658227 -2.96352466 -113.33203125 -9.38671875 C-103.58286698 -13.58543858 -93.76099838 -15.79849479 -83.33203125 -17.38671875 C-82.46191406 -17.51949219 -81.59179688 -17.65226563 -80.6953125 -17.7890625 C-53.97613158 -21.10060784 -21.51039655 -17.61668239 0 0 Z " fill="#44B3C5" transform="translate(1537.33203125,982.38671875)"/>
<path d="M0 0 C-0.33 4.95 -0.66 9.9 -1 15 C-2.16273438 14.97679687 -3.32546875 14.95359375 -4.5234375 14.9296875 C-33.92357448 14.47099493 -33.92357448 14.47099493 -59.12890625 28.00390625 C-69.41895878 38.90037072 -71.23279848 51.36272084 -71.4140625 65.91796875 C-71.43342865 66.90122635 -71.4527948 67.88448395 -71.4727478 68.89753723 C-71.53184577 71.99410721 -71.57864601 75.09071579 -71.625 78.1875 C-71.6632442 80.30535348 -71.70229951 82.42319247 -71.7421875 84.54101562 C-71.8374886 89.69389079 -71.92177243 94.84683852 -72 100 C-77.28 100 -82.56 100 -88 100 C-88 67.33 -88 34.66 -88 1 C-82.72 1 -77.44 1 -72 1 C-71.67 7.6 -71.34 14.2 -71 21 C-70.071875 19.824375 -69.14375 18.64875 -68.1875 17.4375 C-52.79795257 0.01653231 -22.05749372 -5.51437343 0 0 Z " fill="#2257A5" transform="translate(843,985)"/>
<path d="M0 0 C5.28 0 10.56 0 16 0 C16 32.67 16 65.34 16 99 C10.72 99 5.44 99 0 99 C0 66.33 0 33.66 0 0 Z " fill="#173A9A" transform="translate(541,986)"/>
<path d="M0 0 C1.45212891 -0.03867187 1.45212891 -0.03867187 2.93359375 -0.078125 C5.5625 0.25 5.5625 0.25 7.38671875 1.515625 C9.4574511 4.5701272 9.08768725 7.7068353 8.5625 11.25 C7.5 13.1875 7.5 13.1875 5.5625 14.25 C1.63153052 15.30833794 -1.46574644 15.53225119 -5.3125 14.25 C-8.4375 12.25 -8.4375 12.25 -9.5 8.8125 C-9.44167259 5.48783777 -9.36855969 3.89250273 -7.4375 1.25 C-4.85741408 -0.04004296 -2.88008426 0.04589776 0 0 Z " fill="#143197" transform="translate(549.4375,960.75)"/>
</svg>
